<svg width="223" height="223" viewBox="0 0 223 223" fill="none" xmlns="http://www.w3.org/2000/svg">
<circle cx="101.297" cy="101.297" r="101.297" transform="matrix(-1 0 0 1 212.593 10)" stroke="white" stroke-width="20"/>
<circle cx="17.4827" cy="17.4827" r="17.4827" transform="matrix(-0.998409 0.0563827 0.0563827 0.998409 179.513 89.3931)" fill="white"/>
<circle cx="17.4827" cy="17.4827" r="17.4827" transform="matrix(-1 0 0 1 76.8452 93.2997)" fill="white"/>
<circle cx="17.4827" cy="17.4827" r="17.4827" transform="matrix(-0.992489 0.122331 0.122331 0.992489 178.078 84.9469)" fill="white" fill-opacity="0.5"/>
<circle cx="17.4827" cy="17.4827" r="17.4827" transform="matrix(-0.997808 0.0661775 0.0661775 0.997808 75.895 95.6392)" fill="white" fill-opacity="0.5"/>
<circle cx="17.4827" cy="17.4827" r="17.4827" transform="matrix(-0.979288 0.202474 0.202474 0.979288 175.916 79.6373)" fill="white" fill-opacity="0.5"/>
<circle cx="17.4827" cy="17.4827" r="17.4827" transform="matrix(-0.989146 0.146937 0.146937 0.989146 74.937 98.587)" fill="white" fill-opacity="0.5"/>
<circle cx="17.4827" cy="17.4827" r="17.4827" transform="matrix(-0.9601 0.279657 0.279657 0.9601 173.38 74.6245)" fill="white" fill-opacity="0.5"/>
<circle cx="17.4827" cy="17.4827" r="17.4827" transform="matrix(-0.974341 0.225079 0.225079 0.974341 74.2271 101.539)" fill="white" fill-opacity="0.5"/>
<circle cx="17.4827" cy="17.4827" r="17.4827" transform="matrix(-0.934404 0.356216 0.356216 0.934404 170.401 69.7565)" fill="white" fill-opacity="0.5"/>
<circle cx="17.4827" cy="17.4827" r="17.4827" transform="matrix(-0.953002 0.302965 0.302965 0.953002 73.7427 104.584)" fill="white" fill-opacity="0.5"/>
<circle cx="17.4827" cy="17.4827" r="17.4827" transform="matrix(-0.904236 0.427032 0.427032 0.904236 167.199 65.3534)" fill="white" fill-opacity="0.5"/>
<circle cx="17.4827" cy="17.4827" r="17.4827" transform="matrix(-0.926875 0.375369 0.375369 0.926875 73.5054 107.512)" fill="white" fill-opacity="0.5"/>
<circle cx="17.4827" cy="17.4827" r="17.4827" transform="matrix(-0.872444 0.488714 0.488714 0.872444 164.024 61.604)" fill="white" fill-opacity="0.3"/>
<circle cx="17.4827" cy="17.4827" r="17.4827" transform="matrix(-0.898611 0.438745 0.438745 0.898611 73.481 110.159)" fill="white" fill-opacity="0.3"/>
<circle cx="17.4827" cy="17.4827" r="17.4827" transform="matrix(-0.835621 0.549306 0.549306 0.835621 160.515 58.0081)" fill="white" fill-opacity="0.3"/>
<circle cx="17.4827" cy="17.4827" r="17.4827" transform="matrix(-0.865263 0.501318 0.501318 0.865263 73.6401 112.857)" fill="white" fill-opacity="0.3"/>
<circle cx="17.4827" cy="17.4827" r="17.4827" transform="matrix(-0.796646 0.604446 0.604446 0.796646 156.94 54.8208)" fill="white" fill-opacity="0.3"/>
<circle cx="17.4827" cy="17.4827" r="17.4827" transform="matrix(-0.829459 0.558568 0.558568 0.829459 73.9644 115.408)" fill="white" fill-opacity="0.3"/>
<circle cx="17.4827" cy="17.4827" r="17.4827" transform="matrix(-0.747881 0.663833 0.663833 0.747881 152.617 51.4941)" fill="white" fill-opacity="0.1"/>
<circle cx="17.4827" cy="17.4827" r="17.4827" transform="matrix(-0.78412 0.62061 0.62061 0.78412 74.5376 118.273)" fill="white" fill-opacity="0.1"/>
<circle cx="17.4827" cy="17.4827" r="17.4827" transform="matrix(-0.700143 0.714003 0.714003 0.700143 148.507 48.7855)" fill="white" fill-opacity="0.1"/>
<circle cx="17.4827" cy="17.4827" r="17.4827" transform="matrix(-0.739287 0.673391 0.673391 0.739287 75.2378 120.809)" fill="white" fill-opacity="0.1"/>
<circle cx="17.4827" cy="17.4827" r="17.4827" transform="matrix(-0.647658 0.761932 0.761932 0.647658 144.102 46.3053)" fill="white" fill-opacity="0.1"/>
<circle cx="17.4827" cy="17.4827" r="17.4827" transform="matrix(-0.689587 0.724203 0.724203 0.689587 76.1323 123.351)" fill="white" fill-opacity="0.1"/>
<circle cx="17.4827" cy="17.4827" r="17.4827" transform="matrix(-0.604663 0.796482 0.796482 0.604663 140.565 44.5974)" fill="white" fill-opacity="0.1"/>
<circle cx="17.4827" cy="17.4827" r="17.4827" transform="matrix(-0.648609 0.761122 0.761122 0.648609 76.9478 125.273)" fill="white" fill-opacity="0.1"/>
<circle cx="17.4827" cy="17.4827" r="17.4827" transform="matrix(-0.552716 0.83337 0.83337 0.552716 136.368 42.8684)" fill="white" fill-opacity="0.05"/>
<circle cx="17.4827" cy="17.4827" r="17.4827" transform="matrix(-0.598824 0.800881 0.800881 0.598824 78.0171 127.432)" fill="white" fill-opacity="0.05"/>
<circle cx="17.4827" cy="17.4827" r="17.4827" transform="matrix(-0.498221 0.86705 0.86705 0.498221 132.042 41.3998)" fill="white" fill-opacity="0.05"/>
<circle cx="17.4827" cy="17.4827" r="17.4827" transform="matrix(-0.546315 0.83758 0.83758 0.546315 79.2251 129.526)" fill="white" fill-opacity="0.05"/>
<circle cx="17.4827" cy="17.4827" r="17.4827" transform="matrix(-0.442332 0.896851 0.896851 0.442332 127.679 40.22)" fill="white" fill-opacity="0.05"/>
<circle cx="17.4827" cy="17.4827" r="17.4827" transform="matrix(-0.492196 0.870485 0.870485 0.492196 80.5474 131.513)" fill="white" fill-opacity="0.05"/>
<circle cx="17.4827" cy="17.4827" r="17.4827" transform="matrix(-0.380678 0.924708 0.924708 0.380678 122.945 39.2638)" fill="white" fill-opacity="0.05"/>
<circle cx="17.4827" cy="17.4827" r="17.4827" transform="matrix(-0.432211 0.901773 0.901773 0.432211 82.0933 133.535)" fill="white" fill-opacity="0.05"/>
<circle cx="101.297" cy="101.297" r="101.297" transform="matrix(-1 0 0 1 212.593 10)" stroke="white" stroke-width="20"/>
<circle cx="17.4827" cy="17.4827" r="17.4827" transform="matrix(-0.998409 0.0563827 0.0563827 0.998409 179.513 89.3932)" fill="white"/>
<circle cx="17.4827" cy="17.4827" r="17.4827" transform="matrix(-1 0 0 1 76.8462 93.2997)" fill="white"/>
<circle cx="17.4827" cy="17.4827" r="17.4827" transform="matrix(-0.992489 0.122331 0.122331 0.992489 178.079 84.9469)" fill="white" fill-opacity="0.5"/>
<circle cx="17.4827" cy="17.4827" r="17.4827" transform="matrix(-0.997808 0.0661775 0.0661775 0.997808 75.895 95.639)" fill="white" fill-opacity="0.5"/>
<circle cx="17.4827" cy="17.4827" r="17.4827" transform="matrix(-0.979288 0.202474 0.202474 0.979288 175.917 79.6373)" fill="white" fill-opacity="0.5"/>
<circle cx="17.4827" cy="17.4827" r="17.4827" transform="matrix(-0.989146 0.146937 0.146937 0.989146 74.938 98.587)" fill="white" fill-opacity="0.5"/>
<circle cx="17.4827" cy="17.4827" r="17.4827" transform="matrix(-0.9601 0.279657 0.279657 0.9601 173.38 74.6246)" fill="white" fill-opacity="0.5"/>
<circle cx="17.4827" cy="17.4827" r="17.4827" transform="matrix(-0.974341 0.225079 0.225079 0.974341 74.2271 101.539)" fill="white" fill-opacity="0.5"/>
<circle cx="17.4827" cy="17.4827" r="17.4827" transform="matrix(-0.934404 0.356216 0.356216 0.934404 170.402 69.7565)" fill="white" fill-opacity="0.5"/>
<circle cx="17.4827" cy="17.4827" r="17.4827" transform="matrix(-0.953002 0.302965 0.302965 0.953002 73.7427 104.584)" fill="white" fill-opacity="0.5"/>
<circle cx="17.4827" cy="17.4827" r="17.4827" transform="matrix(-0.904236 0.427032 0.427032 0.904236 167.199 65.3534)" fill="white" fill-opacity="0.5"/>
<circle cx="17.4827" cy="17.4827" r="17.4827" transform="matrix(-0.926875 0.375369 0.375369 0.926875 73.5054 107.512)" fill="white" fill-opacity="0.5"/>
<circle cx="17.4827" cy="17.4827" r="17.4827" transform="matrix(-0.872444 0.488714 0.488714 0.872444 164.025 61.604)" fill="white" fill-opacity="0.3"/>
<circle cx="17.4827" cy="17.4827" r="17.4827" transform="matrix(-0.898611 0.438745 0.438745 0.898611 73.481 110.159)" fill="white" fill-opacity="0.3"/>
<circle cx="17.4827" cy="17.4827" r="17.4827" transform="matrix(-0.835621 0.549306 0.549306 0.835621 160.515 58.0081)" fill="white" fill-opacity="0.3"/>
<circle cx="17.4827" cy="17.4827" r="17.4827" transform="matrix(-0.865263 0.501318 0.501318 0.865263 73.6401 112.857)" fill="white" fill-opacity="0.3"/>
<circle cx="17.4827" cy="17.4827" r="17.4827" transform="matrix(-0.796646 0.604446 0.604446 0.796646 156.941 54.8209)" fill="white" fill-opacity="0.3"/>
<circle cx="17.4827" cy="17.4827" r="17.4827" transform="matrix(-0.829459 0.558568 0.558568 0.829459 73.9644 115.408)" fill="white" fill-opacity="0.3"/>
<circle cx="17.4827" cy="17.4827" r="17.4827" transform="matrix(-0.747881 0.663833 0.663833 0.747881 152.618 51.4941)" fill="white" fill-opacity="0.1"/>
<circle cx="17.4827" cy="17.4827" r="17.4827" transform="matrix(-0.78412 0.62061 0.62061 0.78412 74.5386 118.273)" fill="white" fill-opacity="0.1"/>
<circle cx="17.4827" cy="17.4827" r="17.4827" transform="matrix(-0.700143 0.714003 0.714003 0.700143 148.508 48.7855)" fill="white" fill-opacity="0.1"/>
<circle cx="17.4827" cy="17.4827" r="17.4827" transform="matrix(-0.739287 0.673391 0.673391 0.739287 75.2378 120.809)" fill="white" fill-opacity="0.1"/>
<circle cx="17.4827" cy="17.4827" r="17.4827" transform="matrix(-0.647658 0.761932 0.761932 0.647658 144.102 46.3053)" fill="white" fill-opacity="0.1"/>
<circle cx="17.4827" cy="17.4827" r="17.4827" transform="matrix(-0.689587 0.724203 0.724203 0.689587 76.1333 123.351)" fill="white" fill-opacity="0.1"/>
<circle cx="17.4827" cy="17.4827" r="17.4827" transform="matrix(-0.604663 0.796482 0.796482 0.604663 140.566 44.5975)" fill="white" fill-opacity="0.1"/>
<circle cx="17.4827" cy="17.4827" r="17.4827" transform="matrix(-0.648609 0.761122 0.761122 0.648609 76.9478 125.273)" fill="white" fill-opacity="0.1"/>
<circle cx="17.4827" cy="17.4827" r="17.4827" transform="matrix(-0.552716 0.83337 0.83337 0.552716 136.369 42.8684)" fill="white" fill-opacity="0.05"/>
<circle cx="17.4827" cy="17.4827" r="17.4827" transform="matrix(-0.598824 0.800881 0.800881 0.598824 78.0171 127.432)" fill="white" fill-opacity="0.05"/>
<circle cx="17.4827" cy="17.4827" r="17.4827" transform="matrix(-0.498221 0.86705 0.86705 0.498221 132.042 41.3998)" fill="white" fill-opacity="0.05"/>
<circle cx="17.4827" cy="17.4827" r="17.4827" transform="matrix(-0.546315 0.83758 0.83758 0.546315 79.2261 129.526)" fill="white" fill-opacity="0.05"/>
<circle cx="17.4827" cy="17.4827" r="17.4827" transform="matrix(-0.442332 0.896851 0.896851 0.442332 127.68 40.2198)" fill="white" fill-opacity="0.05"/>
<circle cx="17.4827" cy="17.4827" r="17.4827" transform="matrix(-0.492196 0.870485 0.870485 0.492196 80.5483 131.513)" fill="white" fill-opacity="0.05"/>
<circle cx="17.4827" cy="17.4827" r="17.4827" transform="matrix(-0.380678 0.924708 0.924708 0.380678 122.946 39.2638)" fill="white" fill-opacity="0.05"/>
<circle cx="17.4827" cy="17.4827" r="17.4827" transform="matrix(-0.432211 0.901773 0.901773 0.432211 82.0933 133.535)" fill="white" fill-opacity="0.05"/>
</svg>
